# 3ds Max Wavefront OBJ Exporter v0.99 - (c)2007 guruware
# File Created: 14.09.2020 15:37:26

mtllib back_pillar_2.mtl

#
# object Box003
#

v  297.8458 95.3987 3.4111
v  297.8458 98.7729 3.4111
v  330.3938 98.7729 3.4111
v  330.3938 95.3987 3.4111
v  330.3938 95.3986 35.9590
v  330.3938 98.7728 35.9590
v  297.8458 98.7728 35.9590
v  297.8458 95.3986 35.9590
v  293.5095 0.9421 -0.9253
v  334.7302 0.9421 -0.9253
v  334.7302 0.9421 40.2954
v  293.5095 0.9421 40.2954
v  334.7302 197.7925 -0.9253
v  293.5095 197.7925 -0.9253
v  293.5095 197.7924 40.2954
v  334.7302 197.7924 40.2954
v  296.7655 183.5100 2.3307
v  331.4741 183.5100 2.3307
v  331.4741 15.2246 2.3307
v  296.7655 15.2246 2.3307
v  331.4741 183.5099 37.0394
v  296.7655 183.5099 37.0394
v  296.7655 15.2245 37.0393
v  331.4741 15.2245 37.0393
v  297.9092 178.5236 3.4745
v  297.9092 183.5100 3.4745
v  330.3304 183.5100 3.4745
v  330.3304 178.5235 3.4745
v  330.3304 20.2110 3.4744
v  330.3304 15.2246 3.4744
v  297.9092 15.2246 3.4744
v  297.9092 20.2110 3.4744
v  330.3304 178.5235 35.8957
v  330.3304 183.5099 35.8957
v  297.9092 183.5099 35.8957
v  297.9092 178.5235 35.8957
v  297.9092 20.2110 35.8956
v  297.9092 15.2245 35.8956
v  330.3304 15.2245 35.8956
v  330.3304 20.2110 35.8956
v  329.2102 178.5235 4.5946
v  299.0294 178.5236 4.5946
v  299.0294 178.5235 34.7755
v  329.2102 178.5235 34.7755
v  299.0294 20.2110 4.5946
v  329.2102 20.2110 4.5946
v  329.2102 20.2110 34.7755
v  299.0294 20.2110 34.7755
v  299.0294 112.6164 4.5946
v  329.2102 112.6164 4.5946
v  297.2160 98.7729 2.7813
v  331.0236 98.7729 2.7813
v  329.2102 95.3408 4.5946
v  299.0294 95.3408 4.5946
v  329.2102 112.6163 34.7755
v  299.0294 112.6163 34.7755
v  331.0236 98.7729 36.5888
v  297.2160 98.7729 36.5888
v  299.0294 95.3408 34.7755
v  329.2102 95.3408 34.7755
v  297.2160 112.6164 2.7813
v  331.0236 112.6164 2.7813
v  331.0236 112.6163 36.5888
v  297.2160 112.6163 36.5888
# 64 vertices

vn -0.5820 -0.5679 -0.5820
vn -0.3015 -0.9045 -0.3015
vn 0.3015 -0.9045 -0.3015
vn 0.5820 -0.5679 -0.5820
vn 0.5820 -0.5679 0.5820
vn 0.3015 -0.9045 0.3015
vn -0.3015 -0.9045 0.3015
vn -0.5820 -0.5679 0.5820
vn -0.6273 -0.4615 -0.6273
vn 0.6273 -0.4615 -0.6273
vn 0.6273 -0.4615 0.6273
vn -0.6273 -0.4615 0.6273
vn 0.6273 0.4615 -0.6273
vn -0.6273 0.4615 -0.6273
vn -0.6273 0.4615 0.6273
vn 0.6273 0.4615 0.6273
vn -0.5103 -0.6922 -0.5104
vn 0.5103 -0.6922 -0.5104
vn 0.5103 0.6922 -0.5103
vn -0.5103 0.6922 -0.5103
vn 0.5103 -0.6922 0.5103
vn -0.5103 -0.6922 0.5103
vn -0.5104 0.6922 0.5104
vn 0.5104 0.6922 0.5104
vn -0.5773 -0.5774 -0.5774
vn 0.5773 -0.5774 -0.5774
vn 0.5774 0.5774 -0.5773
vn 0.3015 0.9045 -0.3015
vn -0.3015 0.9045 -0.3015
vn -0.5774 0.5774 -0.5773
vn 0.5774 -0.5773 0.5774
vn -0.5774 -0.5774 0.5773
vn -0.5774 0.5774 0.5774
vn -0.3015 0.9045 0.3015
vn 0.3015 0.9045 0.3015
vn 0.5773 0.5774 0.5774
vn -0.5774 -0.5773 -0.5774
vn 0.5774 -0.5773 -0.5774
vn 0.3196 -0.8920 -0.3196
vn -0.3196 -0.8920 -0.3196
vn -0.5774 -0.5773 0.5774
vn -0.3196 -0.8920 0.3196
vn 0.3196 -0.8920 0.3196
vn -0.5773 0.5774 0.5774
# 44 vertex normals

vt 1.0000 0.4844 0.0000
vt 1.0000 0.5156 0.0000
vt 0.0000 0.5156 0.0000
vt 0.0000 0.4844 0.0000
vt 0.0000 0.0000 0.0000
vt 1.0000 0.0000 0.0000
vt 1.0000 1.0000 0.0000
vt 0.0000 1.0000 0.0000
vt 0.4844 0.0000 0.0000
vt 0.5156 0.0000 0.0000
vt 0.5156 1.0000 0.0000
vt 0.4844 1.0000 0.0000
vt 1.0000 0.9010 0.0000
vt 0.0000 0.9010 0.0000
vt 0.0000 0.0990 0.0000
vt 1.0000 0.0990 0.0000
vt 0.9010 0.0000 0.0000
vt 0.9010 1.0000 0.0000
vt 0.0990 1.0000 0.0000
vt 0.0990 0.0000 0.0000
vt 1.0000 0.8619 0.0000
vt 0.0000 0.8619 0.0000
vt 0.0000 0.1381 0.0000
vt 1.0000 0.1381 0.0000
vt 0.8619 0.0000 0.0000
vt 0.8619 1.0000 0.0000
vt 0.1381 1.0000 0.0000
vt 0.1381 0.0000 0.0000
vt 1.0000 0.5468 0.0000
vt 0.0000 0.5468 0.0000
vt 1.0000 0.5172 0.0000
vt 0.0000 0.5172 0.0000
vt 0.5468 0.0000 0.0000
vt 0.5468 1.0000 0.0000
vt 0.5172 0.0000 0.0000
vt 0.5172 1.0000 0.0000
vt 0.4532 1.0000 0.0000
vt 0.4532 0.0000 0.0000
vt 0.4828 1.0000 0.0000
vt 0.4828 0.0000 0.0000
# 40 texture coords

o Box003
g Box003
usemtl wire_115115115
s 2
f 1/1/1 2/2/2 3/3/3 4/4/4 
s 4
f 5/1/5 6/2/6 7/3/7 8/4/8 
s 8
f 9/5/9 10/6/10 11/7/11 12/8/12 
s 16
f 4/9/4 3/10/3 6/11/6 5/12/5 
s 32
f 13/5/13 14/6/14 15/7/15 16/8/16 
s 64
f 2/9/2 1/10/1 8/11/8 7/12/7 
s 2
f 17/13/17 14/7/14 13/8/13 18/14/18 
f 19/15/19 10/5/10 9/6/9 20/16/20 
s 4
f 21/13/21 16/7/16 15/8/15 22/14/22 
f 23/15/23 12/5/12 11/6/11 24/16/24 
s 16
f 18/17/18 13/6/13 16/7/16 21/18/21 
f 24/19/24 11/8/11 10/5/10 19/20/19 
s 64
f 20/17/20 9/6/9 12/7/12 23/18/23 
f 22/19/22 15/8/15 14/5/14 17/20/17 
s 2
f 25/21/25 26/13/2 27/14/3 28/22/26 
f 29/23/27 30/15/28 31/16/29 32/24/30 
s 4
f 33/21/31 34/13/6 35/14/7 36/22/32 
f 37/23/33 38/15/34 39/16/35 40/24/36 
s 16
f 28/25/26 27/17/3 34/18/6 33/26/31 
f 40/27/36 39/19/35 30/20/28 29/28/27 
s 64
f 32/25/30 31/17/29 38/18/34 37/26/33 
f 36/27/32 35/19/7 26/20/2 25/28/25 
s off
f 17/13/17 18/14/18 27/14/3 26/13/2 
f 18/17/18 21/18/21 34/18/6 27/17/3 
f 21/13/21 22/14/22 35/14/7 34/13/6 
f 22/19/22 17/20/17 26/20/2 35/19/7 
f 41/22/3 42/21/2 25/21/25 28/22/26 
f 42/28/2 43/27/7 36/27/32 25/28/25 
f 43/22/7 44/21/6 33/21/31 36/22/32 
f 44/26/6 41/25/3 28/25/26 33/26/31 
f 19/15/19 20/16/20 31/16/29 30/15/28 
f 20/17/20 23/18/23 38/18/34 31/17/29 
f 23/15/23 24/16/24 39/16/35 38/15/34 
f 24/19/24 19/20/19 30/20/28 39/19/35 
f 45/24/29 46/23/28 29/23/27 32/24/30 
f 46/28/28 47/27/35 40/27/36 29/28/27 
f 47/24/35 48/23/34 37/23/33 40/24/36 
f 48/26/34 45/25/29 32/25/30 37/26/33 
s 2
f 49/29/29 42/21/2 41/22/3 50/30/28 
f 2/2/2 51/31/37 52/32/38 3/3/3 
f 53/4/39 46/23/28 45/24/29 54/1/40 
s 4
f 55/29/35 44/21/6 43/22/7 56/30/34 
f 6/2/6 57/31/31 58/32/41 7/3/7 
f 59/4/42 48/23/34 47/24/35 60/1/43 
s 16
f 50/33/28 41/25/3 44/26/6 55/34/35 
f 3/10/3 52/35/38 57/36/31 6/11/6 
f 60/12/43 47/27/35 46/28/28 53/9/39 
s 64
f 54/10/40 45/25/29 48/26/34 59/11/42 
f 56/37/34 43/27/7 42/28/2 49/38/29 
f 7/12/7 58/39/41 51/40/37 2/9/2 
s 2
f 51/31/37 61/29/30 62/30/27 52/32/38 
s 4
f 57/31/31 63/29/36 64/30/44 58/32/41 
s 16
f 52/35/38 62/33/27 63/34/36 57/36/31 
s 64
f 58/39/41 64/37/44 61/38/30 51/40/37 
s off
f 49/29/29 50/30/28 62/30/27 61/29/30 
f 50/33/28 55/34/35 63/34/36 62/33/27 
f 55/29/35 56/30/34 64/30/44 63/29/36 
f 56/37/34 49/38/29 61/38/30 64/37/44 
f 53/4/39 54/1/40 1/1/1 4/4/4 
f 54/10/40 59/11/42 8/11/8 1/10/1 
f 59/4/42 60/1/43 5/1/5 8/4/8 
f 60/12/43 53/9/39 4/9/4 5/12/5 
# 62 polygons

